<svg xmlns="http://www.w3.org/2000/svg" width="15" height="30" viewBox="0 0 15 30">
  <path id="facebook-logo-meta-2-svgrepo-com" d="M13.25,19.125v14.5a.331.331,0,0,0,.375.375h5.75a.331.331,0,0,0,.375-.375V18.875H24a.331.331,0,0,0,.375-.375L24.75,14a.331.331,0,0,0-.375-.375H19.75V10.5a1.419,1.419,0,0,1,1.5-1.375H24.5c.375,0,.5-.125.5-.375V4.375A.331.331,0,0,0,24.625,4h-5.5A5.618,5.618,0,0,0,13.25,9.375v4.25H10.375A.331.331,0,0,0,10,14v4.5a.331.331,0,0,0,.375.375H13.25v.25Z" transform="translate(-10 -4)" fill="#000" fill-rule="evenodd"/>
</svg>
