<svg id="XMLID_801_" xmlns="http://www.w3.org/2000/svg" width="30.066" height="30" viewBox="0 0 30.066 30">
  <path id="XMLID_802_" d="M11.448,99.73H5.412a.485.485,0,0,0-.485.485v19.391a.485.485,0,0,0,.485.485h6.036a.485.485,0,0,0,.485-.485V100.215A.485.485,0,0,0,11.448,99.73Z" transform="translate(-4.449 -90.091)" fill="#fff"/>
  <path id="XMLID_803_" d="M3.983.341A3.979,3.979,0,1,0,7.963,4.32,3.985,3.985,0,0,0,3.983.341Z" transform="translate(0 -0.341)" fill="#fff"/>
  <path id="XMLID_804_" d="M118.229,94.761a7.089,7.089,0,0,0-5.3,2.226V95.728a.485.485,0,0,0-.485-.485h-5.78a.485.485,0,0,0-.485.485v19.391a.485.485,0,0,0,.485.485h6.023a.485.485,0,0,0,.485-.485v-9.594c0-3.233.878-4.492,3.132-4.492,2.454,0,2.649,2.019,2.649,4.659v9.428a.485.485,0,0,0,.485.485h6.025a.485.485,0,0,0,.485-.485V104.482C125.944,99.675,125.028,94.761,118.229,94.761Z" transform="translate(-95.878 -85.603)" fill="#fff"/>
</svg>
