<svg xmlns="http://www.w3.org/2000/svg" width="30.234" height="30" viewBox="0 0 30.234 30">
  <g id="noun-link-5747677" transform="translate(-2.326 -2.431)">
    <g id="Group_123" data-name="Group 123" transform="translate(2.326 2.431)">
      <path id="Path_22" data-name="Path 22" d="M27.37,15.719,24.28,18.81a1.36,1.36,0,1,1-1.923-1.924l3.09-3.091a5.133,5.133,0,0,0,.2-7.056A4.876,4.876,0,0,0,22.1,5.153l-.155,0a5.723,5.723,0,0,0-4.03,1.662L15.1,9.63a1.36,1.36,0,0,1-1.924-1.924l2.817-2.817a8.493,8.493,0,0,1,6.18-2.455,7.577,7.577,0,0,1,5.5,2.485,7.86,7.86,0,0,1-.3,10.8Z" transform="translate(0.56 -2.431)" fill="#fff"/>
      <path id="Path_23" data-name="Path 23" d="M18.807,24.282l-2.835,2.836a8.4,8.4,0,0,1-6.164,2.447,7.548,7.548,0,0,1-5.485-2.487,7.85,7.85,0,0,1-2-5.252,7.705,7.705,0,0,1,2.29-5.556l3.09-3.09A1.36,1.36,0,0,1,9.629,15.1l-3.09,3.09a5.027,5.027,0,0,0-1.493,3.619,5.155,5.155,0,0,0,1.3,3.45,4.857,4.857,0,0,0,3.534,1.583,5.8,5.8,0,0,0,4.167-1.653l2.835-2.835a1.36,1.36,0,1,1,1.922,1.924Z" transform="translate(-2.326 0.432)" fill="#fff"/>
      <path id="Path_24" data-name="Path 24" d="M9.922,20.15,20.148,9.924a1.36,1.36,0,0,1,1.922,1.924L11.845,22.074a1.392,1.392,0,0,1-1.923,0,1.362,1.362,0,0,1,0-1.924Z" transform="translate(-0.884 -1.001)" fill="#fff"/>
    </g>
  </g>
</svg>
